<svg width="119" height="53" viewBox="0 0 119 53" fill="none" xmlns="http://www.w3.org/2000/svg">
<path d="M5.85205 43.8618H2.73926L2.72266 41.9526H5.24609C5.69987 41.9526 6.06234 41.9028 6.3335 41.8032C6.60465 41.6981 6.80111 41.5459 6.92285 41.3467C7.05013 41.1475 7.11377 40.8984 7.11377 40.5996C7.11377 40.2565 7.05013 39.9798 6.92285 39.7695C6.79557 39.5592 6.59359 39.4071 6.31689 39.313C6.04574 39.2134 5.69434 39.1636 5.2627 39.1636H3.83496V49H0.921387V36.9141H5.2627C6.00977 36.9141 6.6766 36.9832 7.26318 37.1216C7.84977 37.2544 8.34782 37.4591 8.75732 37.7358C9.17236 38.0125 9.48779 38.3612 9.70361 38.7817C9.91943 39.1968 10.0273 39.6865 10.0273 40.251C10.0273 40.7435 9.9222 41.2056 9.71191 41.6372C9.50163 42.0688 9.15023 42.4202 8.65771 42.6914C8.17074 42.957 7.50391 43.0954 6.65723 43.1064L5.85205 43.8618ZM5.73584 49H2.03369L3.02979 46.7588H5.73584C6.13428 46.7588 6.45247 46.6979 6.69043 46.5762C6.93392 46.4489 7.10824 46.2829 7.21338 46.0781C7.32406 45.8678 7.37939 45.6354 7.37939 45.3809C7.37939 45.071 7.32682 44.8026 7.22168 44.5757C7.12207 44.3488 6.96159 44.1745 6.74023 44.0527C6.51888 43.9255 6.22282 43.8618 5.85205 43.8618H3.40332L3.41992 41.9526H6.3501L7.03076 42.7163C7.8387 42.6831 8.47786 42.7965 8.94824 43.0566C9.42415 43.3167 9.76449 43.6598 9.96924 44.0859C10.174 44.512 10.2764 44.9575 10.2764 45.4224C10.2764 46.2137 10.1048 46.875 9.76172 47.4062C9.42415 47.9375 8.91781 48.3359 8.24268 48.6016C7.56755 48.8672 6.73193 49 5.73584 49ZM20.0504 46.7588V49H13.941V46.7588H20.0504ZM14.9786 36.9141V49H12.065V36.9141H14.9786ZM26.7365 39.4541L23.7897 49H20.6603L25.1012 36.9141H27.0851L26.7365 39.4541ZM29.1769 49L26.2218 39.4541L25.84 36.9141H27.8488L32.3146 49H29.1769ZM29.0607 44.4927V46.7422H22.86V44.4927H29.0607ZM40.0632 44.9077H42.9685C42.9298 45.7489 42.7029 46.4904 42.2878 47.1323C41.8728 47.7743 41.2973 48.2751 40.5613 48.6348C39.8308 48.9889 38.9675 49.166 37.9714 49.166C37.1635 49.166 36.4413 49.0304 35.8049 48.7593C35.1741 48.4881 34.6373 48.098 34.1946 47.5889C33.7574 47.0798 33.4226 46.4627 33.1902 45.7378C32.9633 45.0129 32.8498 44.1966 32.8498 43.2891V42.6333C32.8498 41.7257 32.9688 40.9095 33.2068 40.1846C33.4503 39.4541 33.7934 38.8343 34.2361 38.3252C34.6843 37.8105 35.2211 37.4176 35.8464 37.1465C36.4717 36.8753 37.1662 36.7397 37.9299 36.7397C38.9814 36.7397 39.8695 36.9279 40.5945 37.3042C41.3194 37.6805 41.8811 38.1979 42.2795 38.8564C42.678 39.5094 42.9132 40.2537 42.9851 41.0894H40.0798C40.0688 40.6356 39.9913 40.2565 39.8474 39.9521C39.7035 39.6423 39.4766 39.4098 39.1667 39.2549C38.8568 39.0999 38.4446 39.0225 37.9299 39.0225C37.5702 39.0225 37.2576 39.0889 36.9919 39.2217C36.7263 39.3545 36.505 39.5648 36.3279 39.8525C36.1508 40.1403 36.018 40.5138 35.9294 40.9731C35.8464 41.4269 35.8049 41.9748 35.8049 42.6167V43.2891C35.8049 43.931 35.8437 44.4788 35.9211 44.9326C35.9986 45.3864 36.1231 45.7572 36.2947 46.0449C36.4662 46.3327 36.6876 46.5457 36.9587 46.6841C37.2354 46.8169 37.573 46.8833 37.9714 46.8833C38.4141 46.8833 38.7877 46.8141 39.092 46.6758C39.3964 46.5319 39.6316 46.3161 39.7976 46.0283C39.9636 45.735 40.0522 45.3615 40.0632 44.9077ZM47.43 36.9141V49H44.5164V36.9141H47.43ZM54.6434 36.9141L49.9617 43.04L47.2225 46.0366L46.6912 43.3638L48.4427 40.7075L51.0491 36.9141H54.6434ZM51.1986 49L48.0775 43.5547L50.3436 41.8862L54.6434 49H51.1986ZM62.8774 36.9141V49H59.9638V36.9141H62.8774ZM67.5757 41.9443V44.1855H62.0473V41.9443H67.5757ZM68.0488 36.9141V39.1636H62.0473V36.9141H68.0488ZM69.4307 36.9141H74.1871C75.1168 36.9141 75.9247 37.0524 76.6109 37.3291C77.2971 37.6058 77.8256 38.0153 78.1964 38.5576C78.5727 39.0999 78.7608 39.7695 78.7608 40.5664C78.7608 41.2581 78.6529 41.8364 78.4371 42.3013C78.2213 42.7661 77.9197 43.1507 77.5323 43.4551C77.1505 43.7539 76.705 44.0002 76.1959 44.1938L75.2413 44.7334H71.2486L71.232 42.4839H74.1871C74.5578 42.4839 74.865 42.4175 75.1085 42.2847C75.3519 42.1519 75.5346 41.9637 75.6563 41.7202C75.7836 41.4712 75.8472 41.1751 75.8472 40.832C75.8472 40.4834 75.7836 40.1846 75.6563 39.9355C75.529 39.6865 75.3409 39.4956 75.0919 39.3628C74.8484 39.23 74.5468 39.1636 74.1871 39.1636H72.3443V49H69.4307V36.9141ZM76.0464 49L73.3736 43.6543L76.4615 43.6377L79.1675 48.8755V49H76.0464ZM83.7868 36.9141V49H80.8815V36.9141H83.7868ZM89.9333 49H87.2522L87.2688 46.7588H89.9333C90.4867 46.7588 90.9543 46.626 91.3362 46.3604C91.7235 46.0947 92.0168 45.6991 92.216 45.1733C92.4208 44.6421 92.5232 43.9891 92.5232 43.2144V42.6914C92.5232 42.1104 92.4651 41.6012 92.3488 41.1641C92.2382 40.7214 92.0722 40.3534 91.8508 40.0601C91.6294 39.7612 91.3528 39.5371 91.0207 39.3877C90.6942 39.2383 90.3179 39.1636 89.8918 39.1636H87.2024V36.9141H89.8918C90.7108 36.9141 91.4607 37.0552 92.1413 37.3374C92.8275 37.6141 93.4196 38.0125 93.9177 38.5327C94.4213 39.0474 94.8086 39.6589 95.0798 40.3672C95.3565 41.07 95.4948 41.8503 95.4948 42.708V43.2144C95.4948 44.0666 95.3565 44.8468 95.0798 45.5552C94.8086 46.2635 94.424 46.875 93.926 47.3896C93.4279 47.9043 92.8386 48.3027 92.1579 48.585C91.4828 48.8617 90.7413 49 89.9333 49ZM88.9206 36.9141V49H86.007V36.9141H88.9206ZM102.123 39.4541L99.1761 49H96.0467L100.488 36.9141H102.471L102.123 39.4541ZM104.563 49L101.608 39.4541L101.226 36.9141H103.235L107.701 49H104.563ZM104.447 44.4927V46.7422H98.2464V44.4927H104.447ZM109.705 36.9141L111.93 42.1602L114.163 36.9141H117.301L113.416 44.6587V49H110.453V44.6587L106.559 36.9141H109.705Z" fill="url(#paint0_linear_1_73)"/>
<path d="M1 28.0995V22.3982C4.52089 24.0271 7.5001 24.8416 9.6668 24.8416C12.5106 24.8416 13.8648 23.7556 13.8648 21.7194C13.8648 20.6335 13.1877 19.819 11.9689 18.8688C11.4272 18.4615 10.2085 17.7828 8.31261 16.9683C6.41675 16.1538 5.06256 15.3394 4.25005 14.5249C2.35419 12.8959 1.27084 10.724 1.27084 8.28054C1.27084 5.8371 2.08335 3.8009 3.84379 2.30769C5.60424 0.814479 8.04178 0 11.1564 0C13.7294 0 16.5732 0.678733 19.8232 2.0362L17.7919 6.78733C14.9481 5.70135 12.9169 5.02262 11.4272 5.02262C9.93764 5.15837 8.85429 5.42986 8.31261 5.97285C7.63552 6.51583 7.36468 7.05882 7.36468 7.73755C7.36468 8.41629 7.5001 8.95927 7.77094 9.36651C8.04178 9.77375 8.44803 10.181 8.98971 10.5882C9.53138 10.9955 11.021 11.6742 13.3231 12.8959C15.7606 13.9819 17.3857 15.2036 18.469 16.5611C19.5524 17.9185 19.9586 19.4118 19.9586 21.3122C19.9586 23.8914 19.0107 26.0633 17.1148 27.5565C15.219 29.0498 12.646 29.8642 9.39596 29.8642C6.14591 29.8642 3.43754 29.3213 1 28.0995Z" fill="#8178D9"/>
<path d="M24.6983 29.457V7.19457H29.3025L30.115 10.0452H30.3859C31.7401 7.87331 34.0422 6.78733 37.1568 6.78733C39.7298 6.78733 41.6256 7.46607 42.9798 8.82353C44.334 10.181 45.1465 12.3529 45.1465 14.9321V29.457H39.0527V16.5611C39.0527 14.9321 38.7818 13.7104 38.2402 12.8959C37.6985 12.0814 36.7506 11.6742 35.5318 11.6742C33.9068 11.6742 32.5526 12.2172 31.8755 13.3032C31.1984 14.3891 30.7921 16.2896 30.7921 18.8688V29.3213L24.6983 29.457Z" fill="#8178D9"/>
<path d="M50.0216 18.3258C50.0216 14.6606 50.9695 11.81 52.8653 9.9095C54.7612 7.87331 57.3342 6.78733 60.855 6.78733C63.0217 6.78733 64.9176 7.19457 66.4072 8.1448C68.0322 9.09503 69.251 10.4525 70.1989 12.0814C71.0114 13.8462 71.5531 15.8824 71.5531 18.19C71.5531 21.8552 70.6052 24.7059 68.7093 26.7421C66.8135 28.7783 64.1051 29.8643 60.7196 29.8643C58.5529 29.8643 56.6571 29.457 55.032 28.5068C53.407 27.5566 52.1882 26.1991 51.2403 24.4344C50.4278 22.6697 50.0216 20.6335 50.0216 18.3258ZM57.1987 13.3032C56.5216 14.3891 56.1154 16.0181 56.1154 18.19C56.1154 20.362 56.5216 22.1267 57.1987 23.2127C57.8758 24.2986 59.0946 24.8416 60.7196 24.8416C62.3447 24.8416 63.5634 24.2986 64.2405 23.2127C64.9176 22.1267 65.3239 20.4977 65.3239 18.19C65.3239 16.0181 64.9176 14.3891 64.2405 13.3032C63.5634 12.2172 62.3447 11.6742 60.7196 11.6742C59.0946 11.6742 58.0113 12.2172 57.1987 13.3032Z" fill="#8178D9"/>
<path d="M72.5011 7.19456H78.8658L83.1992 19.819C83.7409 21.4479 84.0117 22.9412 84.1472 24.4344H84.2826C84.2826 23.2127 84.6888 21.5837 85.2305 19.819L89.4285 7.19456H95.7932L87.1264 29.457H80.8971L72.5011 7.19456Z" fill="#8178D9"/>
<g opacity="0.5">
<path d="M96.064 29.4572L99.314 14.6608H103.241L100.127 29.4572H96.064ZM99.8557 11.1314C99.8557 10.3169 100.127 9.77396 100.533 9.36672C100.939 8.95948 101.481 8.82373 102.293 8.82373C103.377 8.82373 104.054 9.36672 104.054 10.4527C104.054 11.1314 103.918 11.6744 103.512 12.2174C103.106 12.6246 102.699 12.8961 101.887 12.8961C100.533 12.7604 99.8557 12.2174 99.8557 11.1314Z" fill="#8178D9"/>
<path d="M106.356 28.2355C105.272 27.1495 104.866 25.7921 104.866 24.0274C104.866 22.2626 105.137 20.6337 105.814 19.1405C106.491 17.6473 107.304 16.5613 108.523 15.7468C109.741 14.9323 111.095 14.5251 112.856 14.5251C114.481 14.5251 115.835 15.0681 116.783 16.154C117.731 17.24 118.273 18.5975 118.273 20.4979C118.273 22.3984 118.002 24.0274 117.325 25.3848C116.648 26.7423 115.835 27.964 114.616 28.7785C113.398 29.593 112.043 30.0002 110.418 30.0002C108.793 30.0002 107.439 29.1857 106.356 28.2355ZM108.793 24.0274C108.793 25.6563 109.47 26.4708 110.825 26.4708C111.502 26.4708 112.043 26.1993 112.585 25.6563C113.127 25.1133 113.533 24.2988 113.804 23.3486C114.075 22.3984 114.21 21.3124 114.21 20.2264C114.21 18.4617 113.533 17.6473 112.314 17.6473C111.637 17.6473 111.095 17.9188 110.554 18.4617C110.012 19.0047 109.606 19.8192 109.335 20.7694C109.064 21.8554 108.793 22.9414 108.793 24.0274Z" fill="#8178D9"/>
</g>
<defs>
<linearGradient id="paint0_linear_1_73" x1="61" y1="43" x2="61" y2="49" gradientUnits="userSpaceOnUse">
<stop stop-color="#DC324A"/>
<stop offset="1" stop-color="#0F0F0F"/>
</linearGradient>
</defs>
</svg>
